<svg id="Layer_1" enable-background="new 0 0 511.94 511.94" height="512" viewBox="0 0 511.94 511.94" width="512" xmlns="http://www.w3.org/2000/svg"><path d="m511.609 496.143c-.609-2.02-2.044-3.653-3.886-4.574-8.394-4.112-18.568.866-26.673-6.002-8.728-8.924-7.801-22.624-5.677-39.621 3.64-30.325 9.785-58.341 16.293-88.002 4.002-18.243 8.141-37.108 11.658-56.659l.249-1.477c.96-5.678 1.866-11.042 1.153-17.649-1.041-9.624-15.952-8.007-14.914 1.61.491 4.544-.18 8.514-1.029 13.539l-.238 1.415c-3.451 19.176-7.559 37.899-11.531 56.006-6.297 28.704-12.809 58.385-16.529 89.393-1.558 12.467-3.57 28.572 2.941 42.09-2.629-3.255-4.773-7.139-6.417-11.631-11.928-35.887-5.073-71.459 2.184-109.119 1.387-7.197 2.82-14.639 4.112-22.063 5.65-29.431 4.583-55.182-3.263-78.719-.017-.051-.034-.101-.052-.151-5.653-15.828-14.57-28.663-27.262-39.239-9.174-7.621-21.78-10.632-33.091-13.329-10.006-2.386-15.068-7.881-22.255-15.013l13.276-13.275c8.223 6.96 18.582 7.809 28.698 9.803 12.237 2.413 24.215 6.544 34.871 13.105 13.326 8.206 23.405 19.872 29.148 33.735 3.704 8.944 17.561 3.195 13.857-5.74-6.958-16.798-19.109-30.896-35.141-40.767-10.035-6.179-21.122-10.561-32.534-13.428-9.872-2.481-22.607-2.05-30.51-9.333 1.554-6.557-.199-13.744-5.303-18.849l-11.679-11.679 45.784-45.783 5.694 21.622c1.748 6.639 10.973 7.513 13.98 1.404l42.002-85.267c3.042-6.178-3.761-13.139-10.043-10.042l-85.267 42.001c-5.996 2.954-5.155 12.253 1.404 13.98l21.622 5.695-45.784 45.784-11.683-11.683c-5.104-5.104-12.291-6.855-18.846-5.302-4.935-5.372-6.014-12.225-7.119-19.19-6.322-39.787-31.022-74.53-71.676-83.828-16.503-3.774-34.77-3.834-55.847-.184-39.9 6.911-79.085 17.436-118.996 24.28-12.3 2.11-25.366 4.136-38.124 3.718-19.55-.637-28.811-10.258-28.003-29.863.3-7.181-9.278-10.672-13.579-4.687-10.366 14.421-10.081 33.853.705 48.367l63.591 382.39c.516 3.13 3.061 5.647 6.168 6.168l381.888 63.507c14.339 10.799 32.191 10.508 47.442 1.668 3.383-1.788 5.391-5.281 4.231-9.132zm-45.287-450.485-23.384 47.472-3.907-14.838c-.688-2.613-2.729-4.654-5.343-5.342l-14.837-3.908zm-76.816 179.169c11.576 3.708 23.639 4.838 33.813 12.148 10.452 8.765 17.82 19.406 22.519 32.523 6.993 21.032 7.885 44.303 2.725 71.137-.008.044-.017.087-.023.131-1.271 7.311-2.696 14.706-4.075 21.857-7.309 37.932-14.866 77.154-1.651 116.8.021.064.044.128.066.191.817 2.245 1.74 4.373 2.747 6.406l-350.736-58.325 25.355-25.355 3.688 17.212c1.21 5.641 8.502 7.868 12.638 3.732l54.809-54.809c1.351-1.351 2.135-3.167 2.192-5.076l1.075-35.461 146.116-146.116 21.326 21.085c8.386 8.306 15.849 18.214 27.416 21.92zm-363.592-158.737c7.302 3.811 14.855 5.885 21.484 7.305 34.5 7.188 66.154 1.003 96.763-4.979 13.538-2.646 27.537-5.381 41.538-6.903 33.952-3.511 57.959 1.308 77.903 15.667 12.593 8.889 19.446 22.06 22.917 44.042.838 5.349 4.331 10.348 8.055 14.083 11.93 12.355 23.82 24.305 35.538 35.956l-148.088 148.088-33.003-.943c-2.067-.063-4.059.734-5.517 2.193l-5.812 5.811c-6.842 6.841 3.764 17.448 10.605 10.607l3.526-3.525 27.624.789-.778 25.691-42.957 42.958-3.688-17.212c-.619-2.888-2.875-5.144-5.763-5.762l-17.213-3.688 11.214-11.214c6.841-6.841-3.766-17.446-10.607-10.606l-20.962 20.962c-4.074 4.075-1.949 11.419 3.732 12.637l17.213 3.689-25.355 25.355zm357.225 96.715c1.978 1.978 1.978 5.196 0 7.174l-16.413 16.413c-5.118-5.059-10.188-10.167-15.277-15.255l20.011-20.011zm-33.968-33.968 11.683 11.683-20.011 20.011-15.266-15.266 16.428-16.428c1.976-1.976 5.191-1.975 7.166 0zm-300.49-76.12c14.139.459 28.087-1.687 41.147-3.926 39.92-6.847 79.113-17.373 119.021-24.284 24.439-4.233 51.259-4.047 73.022 9.343 21.716 13.36 33.242 37.776 37.124 62.24 1.309 8.244 2.791 17.496 9.313 25.229l-13.386 13.386c-4.352-4.442-11.917-9.86-13.646-16.188-2.788-17.455-8.654-39.212-28.968-53.55-14.332-10.32-39.066-23.452-88.192-18.37-28.179 3.063-55.594 10.884-83.773 13.904-23.364 2.504-56.067 3.612-75.135-12.807 8.025 4.004 16.939 4.81 23.473 5.023z"/></svg>