<?xml version="1.0" encoding="iso-8859-1"?>
<!-- Generator: Adobe Illustrator 17.1.0, SVG Export Plug-In . SVG Version: 6.00 Build 0)  -->
<!DOCTYPE svg PUBLIC "-//W3C//DTD SVG 1.1//EN" "http://www.w3.org/Graphics/SVG/1.1/DTD/svg11.dtd">
<svg stroke="#f8f8f8" fill="#f8f8f8" version="1.1" id="Capa_1" xmlns="http://www.w3.org/2000/svg" xmlns:xlink="http://www.w3.org/1999/xlink" x="0px" y="0px"
	 viewBox="0 0 511.593 511.593" style="enable-background:new 0 0 511.593 511.593;" xml:space="preserve">
<g>
	<path d="M463.509,24.47c0-1.989-0.79-3.897-2.197-5.303l-16.971-16.97c-2.929-2.929-7.678-2.929-10.606,0L196.956,238.976
		c-8.001,8.001-15.84,17.416-18.998,32.001c-2.302,10.633-9.089,45.199-10.905,54.47L50.28,442.221
		c-2.929,2.929-2.929,7.678,0,10.606l56.568,56.568c1.415,1.415,3.326,2.197,5.303,2.197c0.306,0,0.613-0.019,0.921-0.057
		c2.293-0.284,4.328-1.608,5.515-3.591l66.053-110.351l31.305-10.435c2.72-0.907,4.686-3.285,5.063-6.128
		c0.026-0.196,2.306-17.364,4.796-36.553l32.67-32.67c12.282-12.282,12.282-32.266,0-44.547l-0.354-0.354l140.01-140.01
		c1.407-1.406,2.197-3.314,2.197-5.303V90.758l60.985-60.985C462.719,28.367,463.509,26.459,463.509,24.47z M247.868,277.867
		c6.433,6.434,6.433,16.901,0,23.334l-18.939,18.939c0.754-5.958,1.389-11.065,1.898-15.266c0.547-4.511,0.956-8.029,1.213-10.456
		c0.06-0.566,0.117-1.097,0.166-1.598l15.308-15.308L247.868,277.867z M387.53,82.343c-0.003,0.004-0.007,0.007-0.01,0.01
		l-17.24,17.24c-2.929,2.929-2.929,7.678,0,10.606c2.929,2.929,7.678,2.929,10.606,0l4.441-4.441v12.728L242.216,261.599
		c-0.002,0.002-0.003,0.003-0.005,0.005s-0.003,0.003-0.005,0.005l-22.622,22.622c-1.546,1.546-2.311,3.653-2.183,5.759
		c-0.393,5.917-6.449,52.707-10.646,84.421l-29.494,9.832c-1.701,0.567-3.143,1.725-4.063,3.263L110.655,491.99L66.19,447.524
		l113.088-113.089c1.055-1.055,1.771-2.4,2.058-3.864c0.086-0.444,8.704-44.508,11.283-56.42c1.499-6.925,4.407-12.656,9.842-19.063
		l0.152,0.152c4.582,4.582,10.598,6.872,16.617,6.872c6.017,0,12.036-2.292,16.617-6.872l98.437-98.437
		c2.929-2.929,2.929-7.678,0-10.606c-2.929-2.929-7.678-2.929-10.606,0l-98.437,98.437c-3.314,3.315-8.707,3.314-12.021,0
		l-0.354-0.354L439.039,18.106l6.364,6.364L387.53,82.343z"/>
	<path d="M352.478,117.395l-11,11c-2.929,2.929-2.929,7.678,0,10.606c1.464,1.464,3.384,2.197,5.303,2.197s3.839-0.732,5.303-2.197
		l11-11c2.929-2.929,2.929-7.678,0-10.606C360.156,114.466,355.407,114.466,352.478,117.395z"/>
</g>
<g>
</g>
<g>
</g>
<g>
</g>
<g>
</g>
<g>
</g>
<g>
</g>
<g>
</g>
<g>
</g>
<g>
</g>
<g>
</g>
<g>
</g>
<g>
</g>
<g>
</g>
<g>
</g>
<g>
</g>
</svg>
