<svg id="Capa_1" enable-background="new 0 0 512 512" height="512" viewBox="0 0 512 512" width="512" xmlns="http://www.w3.org/2000/svg"><g><path d="m123.467 31.566h9.066v9.067c0 4.143 3.357 7.5 7.5 7.5s7.5-3.357 7.5-7.5v-9.067h9.066c4.143 0 7.5-3.357 7.5-7.5s-3.357-7.5-7.5-7.5h-9.066v-9.066c0-4.143-3.357-7.5-7.5-7.5s-7.5 3.357-7.5 7.5v9.066h-9.066c-4.143 0-7.5 3.357-7.5 7.5s3.357 7.5 7.5 7.5z"/><path d="m388.533 480.434h-9.066v-9.067c0-4.143-3.357-7.5-7.5-7.5s-7.5 3.357-7.5 7.5v9.067h-9.067c-4.143 0-7.5 3.357-7.5 7.5s3.357 7.5 7.5 7.5h9.066v9.066c0 4.143 3.357 7.5 7.5 7.5s7.5-3.357 7.5-7.5v-9.066h9.066c4.143 0 7.5-3.357 7.5-7.5s-3.356-7.5-7.499-7.5z"/><path d="m139.25 305.7c0-13.271-10.796-24.066-24.066-24.066s-24.068 10.796-24.068 24.066 10.797 24.066 24.067 24.066 24.067-10.795 24.067-24.066zm-24.066 9.067c-5 0-9.067-4.067-9.067-9.066s4.067-9.066 9.067-9.066c4.999 0 9.066 4.067 9.066 9.066s-4.067 9.066-9.066 9.066z"/><path d="m131.75 263.5c13.27 0 24.066-10.796 24.066-24.066s-10.796-24.067-24.066-24.067-24.066 10.797-24.066 24.067 10.795 24.066 24.066 24.066zm0-33.134c4.999 0 9.066 4.067 9.066 9.067 0 4.999-4.067 9.066-9.066 9.066s-9.066-4.067-9.066-9.066 4.067-9.067 9.066-9.067z"/><path d="m462.3 255.666c-.011-6.411-4.423-11.787-10.729-13.074-6.296-1.279-12.45 1.93-14.968 7.814-21.044 49.196-69.145 80.929-122.624 80.929-.117 0-.242-.001-.359-.001-73.116-.195-132.759-59.838-132.953-132.953-.143-53.619 31.623-101.894 80.929-122.983 5.884-2.518 9.097-8.672 7.812-14.968-1.287-6.306-6.663-10.718-13.087-10.729h-.321c-49.345 0-97.096 17.697-134.458 49.832-3.141 2.701-3.496 7.437-.796 10.577 2.702 3.142 7.437 3.495 10.577.796 32.781-28.195 74.191-44.403 117.316-46.063-50.804 24.916-83.125 76.527-82.973 133.577.217 81.343 66.569 147.696 147.913 147.914.134 0 .266.001.4.001 56.893-.002 108.324-32.289 133.18-82.979-3.882 102.084-88.141 183.944-191.159 183.944-8.348 0-16.77-.549-25.034-1.632-.476-.062-.641-.589-.663-.892-.071-.97-.205-1.953-.397-2.922-2.131-10.735-11.224-18.696-22.113-19.359-8.759-.518-17.137 3.747-21.829 11.172-.079.126-.434.221-.782.082-19.635-7.83-37.752-18.818-53.85-32.661-3.139-2.701-7.875-2.346-10.576.797-2.701 3.141-2.344 7.876.797 10.576 17.356 14.926 36.895 26.776 58.071 35.221 7.049 2.812 15.046.287 19.021-6.003 1.768-2.799 4.926-4.42 8.236-4.211 4.024.245 7.52 3.318 8.311 7.308.073.371.125.742.151 1.102.562 7.652 6.185 13.683 13.673 14.664 8.908 1.167 17.986 1.759 26.983 1.759 113.754 0 206.3-92.546 206.3-206.3v-.335z"/><path d="m64.7 256c0-45.757 16.409-90.035 46.205-124.677 2.7-3.141 2.345-7.876-.796-10.577-3.14-2.7-7.875-2.346-10.577.796-32.135 37.362-49.832 85.113-49.832 134.458 0 49.343 17.699 97.092 49.837 134.451 1.483 1.724 3.58 2.608 5.688 2.608 1.732 0 3.473-.597 4.889-1.815 3.14-2.701 3.495-7.436.794-10.577-29.798-34.637-46.208-78.912-46.208-124.667z"/><path d="m463.083 381.033c-4.143 0-7.5 3.357-7.5 7.5v16.567c0 4.143 3.357 7.5 7.5 7.5s7.5-3.357 7.5-7.5v-16.566c0-4.143-3.357-7.501-7.5-7.501z"/><path d="m463.083 447.3c-4.143 0-7.5 3.357-7.5 7.5v16.566c0 4.143 3.357 7.5 7.5 7.5s7.5-3.357 7.5-7.5v-16.566c0-4.143-3.357-7.5-7.5-7.5z"/><path d="m504.5 422.45h-16.566c-4.143 0-7.5 3.357-7.5 7.5s3.357 7.5 7.5 7.5h16.566c4.143 0 7.5-3.357 7.5-7.5s-3.357-7.5-7.5-7.5z"/><path d="m438.233 422.45h-16.566c-4.143 0-7.5 3.357-7.5 7.5s3.357 7.5 7.5 7.5h16.566c4.143 0 7.5-3.357 7.5-7.5s-3.357-7.5-7.5-7.5z"/><path d="m48.917 64.7c4.143 0 7.5-3.357 7.5-7.5v-16.566c0-4.143-3.357-7.5-7.5-7.5s-7.5 3.357-7.5 7.5v16.566c0 4.143 3.357 7.5 7.5 7.5z"/><path d="m56.417 123.467v-16.567c0-4.143-3.357-7.5-7.5-7.5s-7.5 3.357-7.5 7.5v16.566c0 4.143 3.357 7.5 7.5 7.5s7.5-3.357 7.5-7.499z"/><path d="m73.767 89.55h16.566c4.143 0 7.5-3.357 7.5-7.5s-3.357-7.5-7.5-7.5h-16.566c-4.143 0-7.5 3.357-7.5 7.5 0 4.142 3.357 7.5 7.5 7.5z"/><path d="m24.066 74.55h-16.566c-4.143 0-7.5 3.357-7.5 7.5s3.357 7.5 7.5 7.5h16.566c4.143 0 7.5-3.357 7.5-7.5s-3.357-7.5-7.5-7.5z"/></g></svg>