<svg stroke="#f8f8f8" fill="#f8f8f8" height="512pt" viewBox="-24 0 512 512" width="512pt" xmlns="http://www.w3.org/2000/svg"><path d="m344.273438 264c-4.425782 0-8.042969-3.574219-8.042969-8s3.539062-8 7.953125-8h.089844c4.414062 0 8 3.574219 8 8s-3.585938 8-8 8zm0 0"/><path d="m120.273438 264c-4.425782 0-8.042969-3.574219-8.042969-8s3.539062-8 7.953125-8h.089844c4.414062 0 8 3.574219 8 8s-3.585938 8-8 8zm0 0"/><path d="m232.03125 408c-83.816406 0-152-68.183594-152-152s68.183594-152 152-152 152 68.183594 152 152-68.183594 152-152 152zm0-288c-74.992188 0-136 61.007812-136 136s61.007812 136 136 136 136-61.007812 136-136-61.007812-136-136-136zm0 0"/><path d="m232.03125 344c-48.519531 0-88-39.480469-88-88s39.480469-88 88-88 88 39.480469 88 88-39.480469 88-88 88zm0-160c-39.703125 0-72 32.296875-72 72s32.296875 72 72 72 72-32.296875 72-72-32.296875-72-72-72zm0 0"/><path d="m232.039062 375.945312c-30.726562 0-61.464843-11.707031-84.847656-35.097656-3.128906-3.128906-3.128906-8.183594 0-11.3125s8.183594-3.128906 11.3125 0c40.542969 40.542969 106.527344 40.542969 147.082032 0 3.125-3.128906 8.183593-3.128906 11.308593 0 3.128907 3.128906 3.128907 8.183594 0 11.3125-23.390625 23.390625-54.125 35.097656-84.855469 35.097656zm0 0"/><path d="m311.230469 184.808594c-2.046875 0-4.09375-.785156-5.65625-2.34375-40.542969-40.542969-106.527344-40.542969-147.078125 0-3.128906 3.128906-8.183594 3.128906-11.3125 0s-3.128906-8.183594 0-11.3125c46.785156-46.785156 122.921875-46.785156 169.703125 0 3.128906 3.128906 3.128906 8.183594 0 11.3125-1.558594 1.558594-3.605469 2.34375-5.65625 2.34375zm0 0"/><path d="m374.222656 241.128906c-1.390625 0-2.796875-.359375-4.085937-1.128906-3.800781-2.257812-5.039063-7.167969-2.785157-10.96875l55.367188-93.03125c2.265625-3.792969 7.152344-5.046875 10.96875-2.785156 3.800781 2.257812 5.039062 7.167968 2.785156 10.96875l-55.359375 93.03125c-1.503906 2.511718-4.160156 3.914062-6.890625 3.914062zm0 0"/><path d="m426.199219 144h-114.542969c-4.425781 0-8-3.574219-8-8s3.574219-8 8-8h114.542969c4.425781 0 8 3.574219 8 8s-3.574219 8-8 8zm0 0"/><path d="m152.40625 144h-114.550781c-4.421875 0-8-3.574219-8-8s3.578125-8 8-8h114.542969c4.425781 0 8 3.574219 8 8s-3.566407 8-7.992188 8zm0 0"/><path d="m89.847656 241.121094c-2.726562 0-5.382812-1.394532-6.878906-3.90625l-55.359375-93.007813c-2.257813-3.800781-1.015625-8.710937 2.78125-10.96875 3.792969-2.261719 8.707031-1.023437 10.96875 2.785157l55.359375 93.007812c2.257812 3.800781 1.015625 8.710938-2.78125 10.96875-1.28125.761719-2.699219 1.121094-4.089844 1.121094zm0 0"/><path d="m232.03125 480c-2.824219 0-5.429688-1.488281-6.871094-3.902344l-47.671875-80.082031c-2.257812-3.800781-1.015625-8.710937 2.785157-10.96875 3.796874-2.253906 8.703124-1.015625 10.964843 2.785156l40.800781 68.527344 40.722657-68.414063c2.261719-3.800781 7.175781-5.050781 10.964843-2.785156 3.800782 2.253906 5.042969 7.167969 2.785157 10.96875l-47.589844 79.960938c-1.457031 2.421875-4.074219 3.910156-6.890625 3.910156zm0 0"/><path d="m24.03125 152c-13.230469 0-24-10.769531-24-24s10.769531-24 24-24c13.234375 0 24 10.769531 24 24s-10.765625 24-24 24zm0-32c-4.414062 0-8 3.585938-8 8s3.585938 8 8 8c4.417969 0 8-3.585938 8-8s-3.582031-8-8-8zm0 0"/><path d="m440.03125 152c-13.230469 0-24-10.769531-24-24s10.769531-24 24-24c13.234375 0 24 10.769531 24 24s-10.765625 24-24 24zm0-32c-4.414062 0-8 3.585938-8 8s3.585938 8 8 8c4.417969 0 8-3.585938 8-8s-3.582031-8-8-8zm0 0"/><path d="m232.03125 512c-13.230469 0-24-10.769531-24-24s10.769531-24 24-24c13.234375 0 24 10.769531 24 24s-10.765625 24-24 24zm0-32c-4.414062 0-8 3.585938-8 8s3.585938 8 8 8c4.417969 0 8-3.585938 8-8s-3.582031-8-8-8zm0 0"/><path d="m34.433594 379.886719c-1.394532 0-2.808594-.359375-4.089844-1.125-3.800781-2.257813-5.039062-7.167969-2.785156-10.96875l55.363281-93.015625c2.261719-3.800782 7.167969-5.050782 10.964844-2.785156 3.800781 2.253906 5.042969 7.167968 2.785156 10.96875l-55.359375 93.015624c-1.496094 2.527344-4.152344 3.910157-6.878906 3.910157zm0 0"/><path d="m152.375 384h-114.527344c-4.421875 0-8-3.574219-8-8s3.578125-8 8-8h114.527344c4.425781 0 8 3.574219 8 8s-3.574219 8-8 8zm0 0"/><path d="m426.160156 384h-114.535156c-4.425781 0-8-3.574219-8-8s3.574219-8 8-8h114.527344c4.421875 0 8 3.574219 8 8s-3.578125 8-7.992188 8zm0 0"/><path d="m429.550781 379.886719c-2.726562 0-5.382812-1.390625-6.878906-3.902344l-55.359375-93.007813c-2.257812-3.800781-1.015625-8.710937 2.785156-10.96875 3.789063-2.273437 8.703125-1.015624 10.964844 2.785157l55.363281 93.007812c2.253907 3.800781 1.015625 8.710938-2.785156 10.96875-1.28125.757813-2.695313 1.117188-4.089844 1.117188zm0 0"/><path d="m279.679688 128.078125c-2.726563 0-5.382813-1.390625-6.878907-3.902344l-40.800781-68.527343-40.71875 68.414062c-2.265625 3.800781-7.167969 5.050781-10.96875 2.785156-3.800781-2.253906-5.039062-7.167968-2.785156-10.96875l47.59375-79.957031c2.886718-4.84375 10.855468-4.84375 13.75 0l47.671875 80.078125c2.257812 3.800781 1.015625 8.710938-2.78125 10.96875-1.273438.75-2.691407 1.109375-4.082031 1.109375zm0 0"/><path d="m440 408c-13.230469 0-24-10.769531-24-24s10.769531-24 24-24 24 10.769531 24 24-10.769531 24-24 24zm0-32c-4.414062 0-8 3.585938-8 8s3.585938 8 8 8 8-3.585938 8-8-3.585938-8-8-8zm0 0"/><path d="m24 408c-13.230469 0-24-10.769531-24-24s10.769531-24 24-24 24 10.769531 24 24-10.769531 24-24 24zm0-32c-4.414062 0-8 3.585938-8 8s3.585938 8 8 8 8-3.585938 8-8-3.585938-8-8-8zm0 0"/><path d="m232 48c-13.230469 0-24-10.769531-24-24s10.769531-24 24-24 24 10.769531 24 24-10.769531 24-24 24zm0-32c-4.414062 0-8 3.585938-8 8s3.585938 8 8 8 8-3.585938 8-8-3.585938-8-8-8zm0 0"/><path d="m204.832031 304c-1.65625 0-3.3125-.511719-4.703125-1.527344-2.464844-1.792968-3.695312-4.824218-3.175781-7.824218l4.496094-26.136719-18.992188-18.511719c-2.175781-2.128906-2.960937-5.304688-2.023437-8.199219.941406-2.890625 3.445312-5 6.460937-5.441406l26.242188-3.816406 11.734375-23.773438c2.679687-5.464843 11.632812-5.472656 14.34375-.007812l11.753906 23.78125 26.222656 3.816406c3.015625.441406 5.511719 2.542969 6.464844 5.441406.9375 2.894531.160156 6.078125-2.023438 8.199219l-18.992187 18.511719 4.207031 24.59375c.351563.894531.535156 1.863281.535156 2.886719 0 4.421874-3.574218 8-8 8-.039062 0-.101562.007812-.160156 0-1.269531 0-2.550781-.304688-3.726562-.921876l-23.464844-12.335937-23.488281 12.335937c-1.160157.625-2.4375.929688-3.710938.929688zm27.199219-30.296875c1.28125 0 2.554688.304687 3.730469.921875l12.832031 6.75-2.449219-14.296875c-.449219-2.589844.414063-5.238281 2.296875-7.078125l10.398438-10.144531-14.351563-2.085938c-2.609375-.378906-4.855469-2.007812-6.023437-4.371093l-6.433594-13.023438-6.429688 13.015625c-1.167968 2.363281-3.417968 4-6.027343 4.378906l-14.367188 2.085938 10.402344 10.144531c1.878906 1.832031 2.742187 4.488281 2.292969 7.078125l-2.453125 14.296875 12.847656-6.75c1.183594-.617188 2.457031-.921875 3.734375-.921875zm0 0"/></svg>