<?xml version="1.0" encoding="iso-8859-1"?>
<!-- Generator: Adobe Illustrator 19.0.0, SVG Export Plug-In . SVG Version: 6.00 Build 0)  -->
<svg version="1.1" id="Capa_1" xmlns="http://www.w3.org/2000/svg" xmlns:xlink="http://www.w3.org/1999/xlink" x="0px" y="0px"
	 viewBox="0 0 511.999 511.999" style="enable-background:new 0 0 511.999 511.999;" xml:space="preserve">
<g>
	<g>
		<path d="M459.806,26.796c-0.393-3.24-2.81-5.868-6.007-6.529C388.861,6.819,322.313,0,255.999,0
			C189.687,0,123.137,6.819,58.2,20.266c-3.196,0.661-5.614,3.289-6.006,6.529c-17.719,145.987-8.103,253.468,29.4,328.581
			c32.581,65.257,81.179,95.271,120.228,119.388c18.549,11.457,36.071,22.277,48.802,35.008c1.485,1.484,3.432,2.226,5.378,2.226
			s3.892-0.742,5.377-2.226c12.731-12.732,30.252-23.552,48.802-35.008c39.05-24.117,87.647-54.131,120.228-119.388
			C467.908,280.264,477.524,172.783,459.806,26.796z M416.8,348.584c-30.648,61.385-75.256,88.934-114.613,113.241
			c-16.935,10.459-33.05,20.412-46.188,32.126c-13.138-11.714-29.252-21.666-46.188-32.126
			c-39.357-24.306-83.964-51.856-114.612-113.241C59.529,277.14,50.176,174.227,66.641,34.064
			c62.226-12.515,125.9-18.857,189.358-18.857s127.132,6.342,189.359,18.857C461.823,174.227,452.47,277.14,416.8,348.584z"/>
	</g>
</g>
<g>
	<g>
		<path d="M426.519,57.712c-0.339-3.385-2.885-6.132-6.235-6.727c-22.853-4.057-46.14-7.303-69.33-9.662
			c-4.19-0.427-7.918,2.666-8.311,6.861v0.001c-0.389,4.169,2.665,7.85,6.83,8.275c20.881,2.126,41.838,4.98,62.477,8.51
			c4.909,51.284,5.949,97.457,3.138,137.684c-49.997-7.878-100.878-12.052-151.487-12.432V51.741
			c16.866,0.141,33.881,0.75,50.765,1.819c4.177,0.265,7.794-2.865,8.093-7.04v-0.002c0.303-4.225-2.905-7.867-7.131-8.135
			c-19.741-1.251-39.662-1.884-59.328-1.884c-54.877,0-110.15,4.875-164.284,14.486c-3.35,0.595-5.896,3.342-6.236,6.727
			c-6.368,63.332-7.026,119.321-1.955,166.408c4.867,45.195,15.205,83.871,30.724,114.955
			c27.942,55.964,68.006,80.707,106.752,104.636c10.784,6.66,20.97,12.951,30.617,19.754c1.314,0.927,2.848,1.39,4.382,1.39
			c1.534,0,3.068-0.463,4.382-1.39c9.662-6.813,19.841-13.099,30.619-19.755c38.745-23.929,78.808-48.672,106.75-104.635
			c15.519-31.084,25.856-69.76,30.724-114.955C433.545,177.029,432.888,121.041,426.519,57.712z M100.048,64.97
			c48.942-8.374,98.778-12.81,148.347-13.223v138.474c-50.61,0.38-101.49,4.555-151.487,12.433
			C94.097,162.428,95.139,116.257,100.048,64.97z M413.353,222.492c-4.673,43.39-14.499,80.329-29.208,109.788
			c-26.008,52.092-64.2,75.68-101.136,98.492c-6.675,4.121-13.117,8.11-19.406,12.19V337.516c0-4.199-3.405-7.604-7.604-7.604
			s-7.604,3.405-7.604,7.604v105.445c-6.285-4.078-12.728-8.067-19.405-12.191c-36.936-22.811-75.128-46.398-101.136-98.491
			c-14.709-29.461-24.536-66.398-29.209-109.788c-0.164-1.529-0.308-3.092-0.46-4.64c49.567-7.865,100.023-12.04,150.211-12.422
			v96.601c0,4.199,3.405,7.604,7.604,7.604s7.604-3.405,7.604-7.604v-96.601c50.188,0.382,100.644,4.556,150.211,12.422
			C413.661,219.399,413.517,220.963,413.353,222.492z"/>
	</g>
</g>
<g>
</g>
<g>
</g>
<g>
</g>
<g>
</g>
<g>
</g>
<g>
</g>
<g>
</g>
<g>
</g>
<g>
</g>
<g>
</g>
<g>
</g>
<g>
</g>
<g>
</g>
<g>
</g>
<g>
</g>
</svg>
