<svg id="Capa_1" enable-background="new 0 0 512.418 512.418" height="512" viewBox="0 0 512.418 512.418" width="512" xmlns="http://www.w3.org/2000/svg"><g id="XMLID_2306_"><g id="XMLID_1088_"><path id="XMLID_1117_" d="m317.725 306.359h17.524c26.657 0 48.345-21.688 48.345-48.346s-21.688-48.346-48.345-48.346h-17.524c-26.658 0-48.346 21.688-48.346 48.346s21.688 48.346 48.346 48.346zm0-76.692h17.524c15.629 0 28.345 12.716 28.345 28.346s-12.716 28.346-28.345 28.346h-17.524c-15.63 0-28.346-12.716-28.346-28.346s12.716-28.346 28.346-28.346z"/><path id="XMLID_1125_" d="m177.781 209.667c-26.658 0-48.346 21.688-48.346 48.346s21.688 48.346 48.346 48.346h17.524c26.658 0 48.346-21.688 48.346-48.346s-21.688-48.346-48.346-48.346zm45.87 48.346c0 15.63-12.716 28.346-28.346 28.346h-17.524c-15.63 0-28.346-12.716-28.346-28.346s12.716-28.346 28.346-28.346h17.524c15.631 0 28.346 12.716 28.346 28.346z"/><path id="XMLID_1128_" d="m256.515 315.275c-13.844 0-25.747 9.406-28.946 22.874l-3.71 15.609c-1.736 7.304-.063 14.872 4.592 20.763 4.654 5.891 11.629 9.269 19.137 9.269h17.856c7.507 0 14.481-3.378 19.136-9.268 4.655-5.891 6.329-13.458 4.593-20.764l-3.71-15.609c-3.202-13.468-15.105-22.874-28.948-22.874zm12.373 46.846c-.492.623-1.595 1.668-3.444 1.668h-17.856c-1.851 0-2.952-1.045-3.444-1.668-.493-.623-1.255-1.938-.827-3.738l3.711-15.61c1.049-4.415 4.95-7.498 9.488-7.498s8.44 3.084 9.49 7.499l3.709 15.608c.428 1.802-.335 3.116-.827 3.739z"/><path id="XMLID_1133_" d="m438.932 387.397-21.901-21.902c16.078-13.98 26.272-34.56 26.272-57.488 0-15.288-4.445-29.854-12.901-42.416 7.891-39.631 2.124-80.115-16.348-115.69l24.872-24.872c7.639 4.961 16.553 7.621 25.876 7.621 12.726 0 24.689-4.955 33.688-13.953 18.573-18.575 18.573-48.799-.001-67.372-6.694-6.696-15.064-11.161-24.169-12.998-1.838-9.104-6.302-17.474-12.997-24.17-8.998-8.998-20.962-13.953-33.687-13.953-12.726 0-24.689 4.955-33.687 13.953s-13.953 20.962-13.953 33.687c0 9.323 2.66 18.237 7.621 25.876l-19.645 19.645c-18.656-15.104-40.301-26.323-63.855-32.813-5.319-1.467-10.83 1.659-12.297 6.984-1.467 5.324 1.66 10.83 6.984 12.297 80.781 22.258 129.603 103.871 111.145 185.802-.65 2.89.014 5.921 1.813 8.273 7.55 9.868 11.541 21.659 11.541 34.099 0 30.985-25.208 56.193-56.192 56.193h-11.923c-5.522 0-10 4.478-10 10v49.336c0 8.088-6.58 14.668-14.668 14.668s-14.668-6.58-14.668-14.668c0-5.522-4.478-10-10-10s-10 4.478-10 10c0 8.088-6.58 14.668-14.669 14.668-8.088 0-14.668-6.58-14.668-14.668 0-5.522-4.478-10-10-10s-10 4.478-10 10c0 8.088-6.58 14.668-14.668 14.668s-14.668-6.58-14.668-14.668c0-5.522-4.478-10-10-10s-10 4.478-10 10c0 8.088-6.58 14.668-14.668 14.668s-14.668-6.58-14.668-14.668v-49.336c0-5.522-4.478-10-10-10h-11.238c-30.984 0-56.192-25.208-56.192-56.193 0-12.182 3.833-23.77 11.086-33.511 1.75-2.352 2.381-5.353 1.725-8.21-18.954-82.546 30.078-164.52 111.626-186.623 5.33-1.444 8.48-6.937 7.035-12.268-1.444-5.33-6.932-8.48-12.268-7.035-23.976 6.498-45.984 17.881-64.901 33.273l-19.914-19.913c4.961-7.639 7.621-16.553 7.621-25.876 0-12.725-4.955-24.688-13.953-33.687-8.997-8.998-20.961-13.953-33.687-13.953-12.725 0-24.688 4.955-33.687 13.954-6.695 6.695-11.16 15.065-12.997 24.169-9.104 1.837-17.475 6.302-24.169 12.997-18.574 18.574-18.574 48.798-.001 67.373 16.15 16.149 41.105 18.258 59.557 6.324l25.281 25.282c-18.439 35.726-24.082 76.337-15.986 116.077-8.107 12.381-12.369 26.677-12.369 41.627 0 22.599 9.899 42.92 25.577 56.886l-22.503 22.504c-18.451-11.932-43.408-9.824-59.557 6.324-18.573 18.575-18.573 48.799.001 67.372 6.694 6.695 15.064 11.161 24.169 12.998 1.838 9.104 6.302 17.474 12.997 24.17 8.998 8.998 20.962 13.953 33.687 13.953 12.726 0 24.689-4.955 33.687-13.953 16.149-16.15 18.257-41.106 6.324-59.556l23.049-23.048v7.879c0 19.116 15.552 34.668 34.668 34.668 9.642 0 18.378-3.957 24.668-10.332 6.29 6.375 15.026 10.332 24.668 10.332s18.378-3.957 24.668-10.332c6.29 6.375 15.026 10.332 24.668 10.332 9.643 0 18.379-3.957 24.669-10.332 6.29 6.375 15.026 10.332 24.668 10.332 19.116 0 34.668-15.552 34.668-34.668v-7.267l22.437 22.436c-11.933 18.449-9.825 43.405 6.324 59.556 8.997 8.998 20.961 13.953 33.687 13.953 12.725 0 24.688-4.955 33.687-13.954 6.695-6.695 11.159-15.065 12.997-24.169 9.104-1.837 17.475-6.302 24.169-12.997 18.574-18.574 18.574-48.798.001-67.373-16.152-16.149-41.107-18.256-59.558-6.324zm-30.841-305.867c3.905-3.905 3.905-10.237 0-14.143-5.221-5.221-8.096-12.161-8.096-19.544s2.875-14.324 8.096-19.544c5.22-5.221 12.161-8.096 19.544-8.096s14.323 2.875 19.544 8.095c5.125 5.126 7.996 11.946 8.085 19.204.065 5.428 4.449 9.812 9.876 9.878 7.261.089 14.081 2.961 19.205 8.086 10.776 10.776 10.777 28.312.001 39.088-10.777 10.778-28.312 10.776-39.089 0-3.906-3.904-10.236-3.904-14.143 0l-27.612 27.612c-6.168-9.139-13.105-17.608-20.707-25.341zm-340.93 23.025c-5.22 5.221-12.161 8.096-19.544 8.096-7.384 0-14.324-2.875-19.545-8.096-10.776-10.776-10.775-28.312.001-39.089 5.124-5.124 11.944-7.996 19.205-8.085 5.427-.066 9.811-4.45 9.876-9.878.089-7.258 2.96-14.078 8.085-19.203 5.221-5.221 12.161-8.096 19.544-8.096s14.324 2.875 19.544 8.096c10.777 10.776 10.777 28.312 0 39.088-3.905 3.905-3.905 10.237 0 14.143l25.602 25.602c-7.582 7.752-14.498 16.241-20.647 25.401l-27.978-27.978c-3.906-3.905-10.236-3.905-14.143-.001zm37.166 326.333c-3.905 3.905-3.905 10.237 0 14.143 5.221 5.221 8.096 12.161 8.096 19.544s-2.875 14.323-8.096 19.544c-5.22 5.221-12.161 8.096-19.544 8.096s-14.323-2.875-19.544-8.095c-5.125-5.126-7.996-11.946-8.085-19.204-.065-5.428-4.449-9.812-9.876-9.878-7.261-.089-14.081-2.961-19.205-8.086-10.776-10.776-10.777-28.312-.001-39.088 5.221-5.221 12.161-8.096 19.545-8.096 7.383 0 14.323 2.875 19.544 8.096 3.906 3.904 10.236 3.904 14.143 0l31.564-31.564c10.177 5.048 21.627 7.901 33.737 7.901h1.238v3.172zm380.018 16.064c-5.124 5.124-11.944 7.996-19.205 8.085-5.427.066-9.811 4.45-9.876 9.878-.089 7.258-2.96 14.078-8.085 19.203-5.221 5.221-12.161 8.096-19.544 8.096s-14.324-2.875-19.544-8.096c-5.221-5.221-8.096-12.161-8.096-19.544s2.875-14.323 8.096-19.544c3.905-3.905 3.905-10.237 0-14.143l-42.903-42.903v-3.784h1.923c11.766 0 22.916-2.684 32.874-7.467l31.13 31.13c3.906 3.904 10.236 3.904 14.143 0 10.776-10.777 28.313-10.776 39.089 0s10.774 28.312-.002 39.089z"/><path id="XMLID_1143_" d="m256.859 74.209c2.631 0 5.21-1.07 7.07-2.94 1.86-1.859 2.93-4.43 2.93-7.069 0-2.631-1.069-5.2-2.93-7.061-1.86-1.87-4.439-2.939-7.07-2.939-2.63 0-5.21 1.069-7.069 2.939-1.86 1.86-2.931 4.43-2.931 7.061 0 2.64 1.07 5.21 2.931 7.069 1.859 1.87 4.439 2.94 7.069 2.94z"/></g></g></svg>