<?xml version="1.0" encoding="iso-8859-1"?>
<!-- Generator: Adobe Illustrator 16.0.0, SVG Export Plug-In . SVG Version: 6.00 Build 0)  -->
<!DOCTYPE svg PUBLIC "-//W3C//DTD SVG 1.1//EN" "http://www.w3.org/Graphics/SVG/1.1/DTD/svg11.dtd">
<svg version="1.1" id="Capa_1" xmlns="http://www.w3.org/2000/svg" xmlns:xlink="http://www.w3.org/1999/xlink" x="0px" y="0px"
	 width="197.771px" height="197.771px" viewBox="0 0 197.771 197.771" style="enable-background:new 0 0 197.771 197.771;"
	 xml:space="preserve">
<g>
	<g>
		<path d="M0.108,55.994c0,1.191,0.968,2.146,2.16,2.146c0,0,0,0,0.005,0l72.123-0.168c0.725,3.422,1.94,6.724,3.641,9.84
			l-75.729,0.18c-1.195,0.005-2.157,0.976-2.157,2.162c0,1.191,0.968,2.146,2.162,2.146c0,0,0,0,0.005,0l78.553-0.185
			c5.767,7.578,14.573,11.702,23.575,11.702c2.415,0,4.833-0.343,7.212-0.954l-2.869,2.863c-1.236-0.253-3.768-0.665-6.868-0.665
			c-6.853,0-12.419,2.025-16.108,5.864c-2.505,2.61-3.127,6.497-3.678,9.93c-0.427,2.642-0.865,5.384-2.052,6.217
			c-0.983,0.675-2.096,0.153-3.312-0.38c-1.785-0.801-4.071-1.239-5.458,0.211c-3.333,3.486-1.463,10.315,4.354,15.916
			c3.596,3.47,7.85,5.526,11.372,5.526c1.938,0,3.567-0.633,4.72-1.835c1.78-1.862,0.651-4.108-0.019-5.459
			c-0.82-1.64-1.1-2.389-0.517-3.29c0.793-1.224,3.504-1.767,6.122-2.3c3.404-0.686,7.259-1.466,9.779-4.092
			c6.858-7.113,5.351-18.183,4.475-22.359l3.296-3.291c-3.085,11.818,1.287,24.817,11.944,32.026v77.852
			c0,1.191,0.971,2.162,2.162,2.162c1.187,0,2.162-0.986,2.162-2.162V120.24c3.144,1.55,6.439,2.604,9.846,3.201v72.167
			c0,1.191,0.976,2.162,2.162,2.162s2.157-0.986,2.157-2.162v-71.725c0.606,0.043,1.218,0.138,1.835,0.138
			c2.389,0,4.814-0.237,7.214-0.723c9.155-1.825,17.075-6.993,22.476-14.539c1.35,1.018,3.054,2.03,5.221,2.03l0,0
			c1.993,0,3.986-0.886,5.933-2.637c0.501-0.453,0.907-0.971,1.345-1.523c1.044-1.361,2.141-2.774,6.623-3.766
			c0.744-0.169,1.34-0.717,1.582-1.45c0.232-0.723,0.079-1.503-0.422-2.088c-0.115-0.122-2.268-2.574-6.006-3.633
			c0.216-0.559,0.374-1.092,0.521-1.577c0.507-1.624,0.781-2.51,2.236-3.333c0.707-0.39,1.118-1.134,1.103-1.925
			c-0.017-0.791-0.47-1.508-1.182-1.882c-0.242-0.122-2.474-1.213-5.311-1.213c-2.562,0-4.83,0.907-6.623,2.615
			c-1.973-3.048-4.646-4.393-4.799-4.472c-0.686-0.338-1.492-0.295-2.136,0.121c-0.639,0.411-1.008,1.134-0.986,1.904
			c0.189,4.609-0.896,6.006-1.936,7.383c-0.433,0.564-0.817,1.091-1.123,1.688c-3.059,5.985,0.147,9.292,2.489,11.09
			c-4.768,6.718-11.744,11.354-19.86,12.962c-7.772,1.561-15.667,0.2-22.465-3.771c-0.194-0.997-1.022-1.762-2.077-1.762
			c-0.153,0-0.285,0.063-0.422,0.095c-5.284-3.85-8.723-9.35-9.936-15.372c1.445,2.178,3.322,4.087,5.569,5.574
			c4.061,2.706,8.711,4.119,13.447,4.119c1.466,0,2.921-0.132,4.387-0.396c3.84-0.723,7.277-2.405,10.21-4.772
			c0.886,0.321,2.362,0.743,4.019,0.743c1.424,0,2.953-0.321,4.308-1.255c2.41-1.683,3.454-4.836,3.054-9.745
			c-0.147-1.672-0.422-4.757,0.928-7.557c0.38-0.786,0.243-1.719-0.337-2.373c-0.58-0.643-1.498-0.886-2.342-0.58
			c-1.266,0.454-12.456,4.672-14.038,11.644c-0.343,1.529-0.253,3.712,1.282,6.144c-2.294,1.724-4.931,2.979-7.879,3.518
			c-5.078,0.949-10.278-0.138-14.645-3.054c-3.47-2.31-5.827-5.79-6.634-9.809c-0.549-2.711-0.285-5.432,0.644-7.937
			c0.527-1.123,1.033-2.247,1.751-3.307c0.01-0.011,0.01-0.021,0.01-0.031c3.576-4.915,10.568-6.139,15.842-2.6
			c2.004,1.324,3.386,3.338,3.881,5.669c0.491,2.294,0.059,4.614-1.213,6.529c-2.004,2.984-6.138,3.733-9.229,1.682
			c-1.007-0.653-2.347-0.39-3.006,0.591c-0.653,1.002-0.39,2.342,0.597,3.006c5.078,3.386,11.907,2.099,15.224-2.869
			c1.92-2.89,2.579-6.391,1.836-9.83c-0.729-3.428-2.764-6.402-5.706-8.358c-3.17-2.115-6.803-2.906-10.305-2.626l3.977-3.977
			c0.844-0.844,0.844-2.215,0-3.048c-0.833-0.839-2.204-0.839-3.048,0l-3.929,3.929c0.258-3.476-0.544-7.062-2.621-10.199
			c-1.967-2.947-4.946-4.978-8.364-5.722c-3.459-0.728-6.95-0.079-9.843,1.867c-4.962,3.312-6.251,10.141-2.876,15.208
			c0.669,1.002,2.009,1.25,2.995,0.59c0.999-0.653,1.266-1.998,0.601-2.995c-2.059-3.09-1.308-7.229,1.688-9.223
			c1.909-1.282,4.225-1.719,6.539-1.234c2.32,0.496,4.335,1.877,5.664,3.881c3.507,5.273,2.305,12.261-2.605,15.847
			c-0.01,0.006-0.026,0.006-0.042,0.016c-1.06,0.712-2.188,1.229-3.307,1.75c-6.322,2.31-13.742,0.011-17.755-5.975
			c-4.751-7.119-4.277-16.126,0.438-22.476c1.658,1.065,3.203,1.419,4.498,1.419c0.606,0,1.168-0.079,1.653-0.18
			c6.984-1.582,11.198-12.767,11.667-14.054c0.296-0.812,0.063-1.734-0.58-2.341c-0.659-0.58-1.603-0.723-2.383-0.338
			c-2.795,1.34-5.751,1.097-7.958,0.918c-4.512-0.364-7.646,0.664-9.342,3.063c-2.081,2.948-1.113,6.708-0.53,8.358
			c-6.199,7.784-6.992,19.122-1.049,28.018c1.58,2.368,3.641,4.166,5.888,5.606c-6.001-1.139-11.515-4.482-15.417-9.661
			c-0.164-0.56-0.525-1.013-1.026-1.298c-4.688-7.108-6.357-15.625-4.688-23.973c1.619-8.121,6.249-15.114,12.975-19.881
			c1.324,1.745,3.23,3.765,6.471,3.765c1.453,0,2.958-0.417,4.612-1.255c0.588-0.311,1.128-0.696,1.689-1.128
			c1.258-0.971,2.566-1.962,6.413-1.962l0.976,0.031c0.712-0.021,1.481-0.337,1.893-0.98c0.417-0.644,0.465-1.456,0.132-2.141
			c-0.079-0.137-1.418-2.816-4.45-4.793c0.976-1.018,1.682-2.188,2.114-3.512c1.382-4.182-0.633-8.253-0.728-8.432
			c-0.358-0.707-1.076-1.16-1.883-1.187c-0.812,0.005-1.545,0.406-1.93,1.107c-0.814,1.45-1.711,1.725-3.33,2.226
			c-0.493,0.147-1.016,0.316-1.577,0.527c-1.06-3.724-3.488-5.886-3.617-5.991c-0.572-0.506-1.361-0.675-2.091-0.422
			c-0.722,0.237-1.268,0.823-1.437,1.577c-1.015,4.493-2.418,5.584-3.778,6.639c-0.562,0.443-1.076,0.844-1.524,1.35
			c-4.375,4.836-2.386,8.754-0.615,11.132c-7.549,5.411-12.711,13.326-14.549,22.486c-0.691,3.48-0.862,6.961-0.562,10.394
			L2.246,53.858C1.081,53.816,0.108,54.792,0.108,55.994z M103.997,108.423c-1.582,1.645-4.611,2.257-7.52,2.837
			c-3.494,0.706-7.108,1.444-8.894,4.182c-1.983,3.054-0.57,5.896,0.279,7.578c0.119,0.237,0.274,0.554,0.382,0.791
			c-0.382,0.179-0.852,0.231-1.223,0.231c-2.36,0-5.651-1.682-8.382-4.334c-3.953-3.808-5.184-7.826-4.477-9.43
			c0.261,0.105,0.572,0.243,0.81,0.338c1.956,0.886,5.142,1.692,7.578-0.026c2.679-1.888,3.262-5.532,3.829-9.065
			c0.469-2.937,0.954-5.979,2.526-7.62c3.602-3.744,9.057-4.529,12.994-4.529c1.113,0,2.139,0.063,3.051,0.152l-4.153,4.15
			c-2.813-1.408-6.42-1.013-8.662,1.313c-1.366,1.424-2.096,3.29-2.057,5.252c0.037,1.973,0.847,3.808,2.273,5.179
			c1.376,1.323,3.19,2.052,5.097,2.052c2.025,0,3.916-0.802,5.308-2.268c1.374-1.414,2.107-3.28,2.065-5.258
			c-0.021-1.171-0.396-2.257-0.923-3.265l3.887-3.897C108.313,97.2,108.256,103.987,103.997,108.423z M100.522,100.064
			c0.016,0.817-0.288,1.598-0.854,2.178c-1.134,1.176-3.133,1.224-4.309,0.095c-0.596-0.564-0.931-1.329-0.946-2.141
			c-0.016-0.812,0.287-1.582,0.854-2.172c0.583-0.602,1.366-0.944,2.207-0.944c0.514,0,0.983,0.169,1.426,0.406
			c0.108,0.264,0.259,0.512,0.475,0.723c0.216,0.216,0.472,0.369,0.741,0.479C100.348,99.104,100.509,99.563,100.522,100.064z
			 M174.743,97.005c0.189-0.369,0.448-0.696,0.717-1.044c0.907-1.181,2.036-2.668,2.563-5.542c0.532,0.749,1.013,1.682,1.318,2.795
			c0.222,0.854,0.97,1.487,1.861,1.587c0.901,0.143,1.745-0.374,2.146-1.187c1.191-2.362,2.868-3.496,5.146-3.496
			c0.042,0,0.085,0,0.121,0.005c-0.532,0.955-0.833,1.915-1.097,2.769c-0.332,1.118-0.67,2.157-1.461,3.217
			c-0.501,0.643-0.58,1.519-0.221,2.247c0.348,0.738,1.097,1.208,1.908,1.224c1.098,0.016,2.067,0.237,2.896,0.554
			c-2.658,1.239-3.802,2.731-4.715,3.918c-0.269,0.343-0.511,0.681-0.817,0.96c-1.128,1.018-2.141,1.529-3.037,1.529
			c-1.234,0-2.415-0.976-3.56-1.909l-1.692-1.308C174.273,101.461,173.034,100.349,174.743,97.005z M152.067,94.611
			c0.559-2.479,3.934-4.973,7.256-6.739c-0.242,2.141-0.084,4.061,0.037,5.384c0.227,2.806-0.227,4.741-1.266,5.484
			c-0.585,0.417-1.424,0.517-2.246,0.454c0.396-0.506,0.849-0.944,1.207-1.466c0.665-0.996,0.391-2.336-0.59-3
			c-1.002-0.665-2.342-0.391-2.996,0.59c-0.337,0.506-0.765,0.913-1.128,1.376C151.898,95.655,151.983,94.922,152.067,94.611z
			 M98.9,39.551c0.736-1.034,2.674-1.498,5.864-1.223c1.189,0.105,2.942,0.242,4.968,0.005c-1.65,3.117-4.108,6.655-6.716,7.251
			c-0.314,0.084-1.05,0.169-2.075-0.264c0.459-0.38,0.87-0.791,1.366-1.139c1-0.665,1.26-2.004,0.596-3.001
			c-0.659-1.007-1.994-1.25-2.998-0.596c-0.541,0.354-0.968,0.817-1.463,1.224C98.395,40.97,98.474,40.142,98.9,39.551z
			 M92.681,12.535c0.279-0.306,0.609-0.548,0.96-0.817c1.178-0.907,2.657-2.057,3.905-4.704c0.303,0.823,0.525,1.783,0.541,2.879
			c0.011,0.802,0.479,1.55,1.21,1.909c0.728,0.353,1.598,0.279,2.252-0.217c1.047-0.785,2.094-1.118,3.212-1.46
			c0.88-0.274,1.858-0.564,2.818-1.128c0.021,1.771-0.69,3.86-3.547,5.289c-0.793,0.406-1.271,1.255-1.178,2.151
			s0.73,1.635,1.592,1.867c1.118,0.295,2.044,0.786,2.793,1.308c-2.888,0.522-4.385,1.661-5.556,2.558
			c-0.351,0.269-0.675,0.538-1.042,0.723c-3.04,1.545-4.419,0.522-6.275-2.072l-1.292-1.683
			C91.072,16.723,90.146,15.33,92.681,12.535z"/>
	</g>
</g>
<g>
</g>
<g>
</g>
<g>
</g>
<g>
</g>
<g>
</g>
<g>
</g>
<g>
</g>
<g>
</g>
<g>
</g>
<g>
</g>
<g>
</g>
<g>
</g>
<g>
</g>
<g>
</g>
<g>
</g>
</svg>
