<?xml version="1.0" encoding="UTF-8"?>
<svg xmlns="http://www.w3.org/2000/svg" viewBox="0 0 64 64" width="512" height="512"><g id="Outline"><path d="M53,56h-.307l-2.37-6.321a2.985,2.985,0,0,0-.219-5.462,24.954,24.954,0,0,0,.98-33.355,1,1,0,0,0-1.527,1.292A22.959,22.959,0,0,1,47.468,44H41a1,1,0,0,0,0,2h8a1,1,0,0,1,0,2H15a1,1,0,0,1,0-2H37a1,1,0,0,0,0-2H33V43a1,1,0,0,0-2,0v1H16.532A22.988,22.988,0,0,1,46.846,9.443a1,1,0,1,0,1.293-1.526A24.987,24.987,0,0,0,13.9,44.217a2.985,2.985,0,0,0-.219,5.462L11.307,56H11a3,3,0,0,0,0,6H24a1,1,0,0,0,0-2H11a1,1,0,0,1,0-2H53a1,1,0,0,1,0,2H28a1,1,0,0,0,0,2H53a3,3,0,0,0,0-6ZM13.443,56l2.25-6H48.307l2.25,6Z"/><path d="M38,52H26a1,1,0,0,0,0,2H38a1,1,0,0,0,0-2Z"/><path d="M46,52H43a1,1,0,0,0,0,2h3a1,1,0,0,0,0-2Z"/><path d="M22,52H18a1,1,0,0,0,0,2h4a1,1,0,0,0,0-2Z"/><path d="M48.782,25.377C48.478,24.994,41.213,16,32,16s-16.478,8.994-16.782,9.377a1,1,0,0,0,0,1.246C15.522,27.006,22.787,36,32,36s16.478-8.994,16.782-9.377A1,1,0,0,0,48.782,25.377ZM17.319,26a30.234,30.234,0,0,1,6.168-5.226,9.948,9.948,0,0,0-.018,10.435A30.38,30.38,0,0,1,17.319,26Zm23.165,5.244a9.831,9.831,0,0,0,1.473-4.393,1,1,0,0,0-1.992-.168,8,8,0,1,1-.493-3.522,1,1,0,0,0,1.869-.711,9.8,9.8,0,0,0-.842-1.679A30.353,30.353,0,0,1,46.681,26,30.2,30.2,0,0,1,40.484,31.244Z"/><path d="M32,21a5,5,0,1,0,5,5A5.006,5.006,0,0,0,32,21Zm0,8a3,3,0,1,1,3-3A3,3,0,0,1,32,29Z"/><path d="M48.737,31.085a1,1,0,0,0-1.413-.062C43.851,34.206,38.373,38,32,38s-11.851-3.794-15.324-6.977A1,1,0,0,0,15.324,32.5C19.06,35.92,24.984,40,32,40s12.94-4.08,16.676-7.5A1,1,0,0,0,48.737,31.085Z"/><path d="M15.324,19.5a1,1,0,0,0,1.352,1.475C20.149,17.794,25.627,14,32,14s11.851,3.794,15.324,6.977A1,1,0,0,0,48.676,19.5C44.94,16.08,39.016,12,32,12S19.06,16.08,15.324,19.5Z"/><path d="M33,9V7a1,1,0,0,0-2,0V9a1,1,0,0,0,2,0Z"/><path d="M40,12a1,1,0,0,0,.9-.553l1-2a1,1,0,1,0-1.79-.894l-1,2A1,1,0,0,0,40,12Z"/><path d="M24,12a1,1,0,0,0,.894-1.447l-1-2a1,1,0,0,0-1.79.894l1,2A1,1,0,0,0,24,12Z"/><path d="M43.293,38.293a1,1,0,0,0,0,1.414l2,2a1,1,0,0,0,1.414-1.414l-2-2A1,1,0,0,0,43.293,38.293Z"/><path d="M19.293,38.293l-2,2a1,1,0,1,0,1.414,1.414l2-2a1,1,0,0,0-1.414-1.414Z"/></g></svg>
