<?xml version="1.0" ?><svg stroke="#f8f8f8" fill="#f8f8f8" enable-background="new 0 0 64 64" id="Layer_1" version="1.1" viewBox="0 0 64 64" xml:space="preserve" xmlns="http://www.w3.org/2000/svg" xmlns:xlink="http://www.w3.org/1999/xlink"><g><path d="M55,24C55,11.3173828,44.6826172,1,32,1S9,11.3173828,9,24c0,3.2628174,0.6778564,6.4124146,2,9.3764038V61   c0,1.1044922,0.8955078,2,2,2s2-0.8955078,2-2V39.484375c0.2835083,0.3096924,0.5761719,0.6099854,0.8754883,0.9030762   c0.0565186,0.0553589,0.1160278,0.1072388,0.1731567,0.1619873c0.2930908,0.28125,0.5934448,0.5540161,0.9004517,0.8190308   c0.1118164,0.0964966,0.2247314,0.1911621,0.3383789,0.2854614c0.2855225,0.2370605,0.5765381,0.4666138,0.8728027,0.6895142   c0.0950928,0.0715332,0.1879272,0.145752,0.2841187,0.2158203c0.3845825,0.2802124,0.7770996,0.5488281,1.1779785,0.8048096   c0.0933228,0.0596313,0.18927,0.114563,0.2834473,0.1728516c0.3199463,0.197998,0.6442871,0.3884888,0.9735718,0.5707397   c0.1309814,0.0725098,0.2623291,0.1438599,0.3947144,0.2138062c0.3425903,0.1810913,0.6896973,0.3533325,1.0411987,0.5172119   c0.0888672,0.0414429,0.1759644,0.0863647,0.2653809,0.1266479c0.4353027,0.196228,0.8773193,0.3778076,1.3247681,0.5469971   c0.1171265,0.0442505,0.2359619,0.0838013,0.3538818,0.1262207c0.3463745,0.1245728,0.6956177,0.241272,1.0482788,0.3493652   c0.140625,0.0430908,0.2810059,0.0859985,0.4226074,0.1264648c0.4071045,0.116272,0.8175659,0.2224121,1.2318726,0.3162842   c0.0618896,0.0140381,0.1225586,0.0314331,0.1845703,0.0449219c0.4728394,0.1030273,0.9507446,0.1879272,1.4315796,0.2610474   c0.1339111,0.0203247,0.2686768,0.0361938,0.4031372,0.0541992c0.366333,0.0490112,0.734436,0.0892944,1.1044922,0.1205444   c0.1437988,0.012146,0.2870483,0.0253296,0.4313354,0.034729C31.0092163,46.9782715,31.5029907,47,32,47   s0.9907837-0.0217285,1.4827881-0.053894c0.1442871-0.0093994,0.2875366-0.022583,0.4313354-0.034729   c0.3700562-0.03125,0.7381592-0.0715332,1.1044922-0.1205444c0.1345215-0.0180054,0.2692871-0.0338745,0.4031982-0.0541992   c0.4807739-0.0731201,0.9585571-0.157959,1.4313354-0.2609863c0.062439-0.0136108,0.1235352-0.0311279,0.185791-0.0452271   c0.4139404-0.0938721,0.8240356-0.1998291,1.2307739-0.31604c0.1414795-0.0404053,0.2818604-0.083313,0.4224243-0.1264038   c0.3535156-0.1083984,0.7035522-0.2252808,1.0507202-0.3502197c0.1168213-0.0420532,0.2346191-0.0811768,0.350647-0.125061   c0.447998-0.1694336,0.890625-0.3511963,1.326416-0.5476685c0.0884399-0.039856,0.1743774-0.0842285,0.2622681-0.1251831   c0.3533936-0.1646729,0.7023926-0.3379517,1.0467529-0.5200195c0.130188-0.0689087,0.2593994-0.1389771,0.3883057-0.2103271   c0.3328857-0.1842041,0.6607666-0.376709,0.9841309-0.5769653c0.0909424-0.0563965,0.1837769-0.1094971,0.2739868-0.1670532   c0.4028931-0.2572632,0.7974243-0.5272827,1.1838379-0.80896c0.0918579-0.0669556,0.1807251-0.1379395,0.2716064-0.2062378   c0.3012085-0.2265015,0.5970459-0.4599609,0.887146-0.7009888c0.1102905-0.0916748,0.2200317-0.1834717,0.3286743-0.2772217   c0.3135986-0.2705688,0.6203613-0.5490112,0.9194946-0.8364868c0.0510864-0.0491333,0.1045532-0.09552,0.1552124-0.1451416   C48.4217529,40.0963745,48.7154541,39.795105,49,39.484375v18.7871094l-16.3974609-5.1787109   c-0.0073853-0.0023804-0.0148926-0.0024414-0.0223389-0.0046997c-0.0672607-0.0205078-0.1374512-0.0298462-0.2068481-0.0432739   c-0.0601196-0.0115356-0.1199341-0.0289917-0.1799927-0.0348511c-0.0518799-0.0050659-0.1048584,0.0001831-0.1573486-0.0008545   c-0.078064-0.0013428-0.1563721-0.0065918-0.2332764,0.0011597c-0.0452271,0.0045166-0.090332,0.0185547-0.1356201,0.0262451   c-0.0841064,0.0144653-0.168457,0.0271606-0.2495728,0.052063c-0.0066528,0.0020142-0.0134277,0.0020752-0.0200806,0.0042114   l-12,3.7890625c-1.0527344,0.3330078-1.6376953,1.4560547-1.3046875,2.5097656   c0.2695313,0.8525391,1.0576172,1.3984375,1.90625,1.3984375c0.2001953,0,0.4033203-0.0302734,0.6035156-0.09375   l11.3973999-3.5988159l18.397522,5.8097534C50.5947266,62.9697266,50.7978516,63,51,63   c0.4199219,0,0.8349609-0.1328125,1.1826172-0.3867188C52.6962891,62.2363281,53,61.6376953,53,61V33.3766479   C54.3218994,30.4138184,55,27.2634888,55,24z M29.2876587,42.8033447   c-6.237854-0.9088745-11.7453003-4.906189-14.4782715-10.6953735C13.6082764,29.557312,13,26.8289185,13,24   c0-10.4765625,8.5234375-19,19-19s19,8.5234375,19,19c0,2.8291016-0.6083984,5.5576172-1.8085938,8.1064453   C46.0683594,38.7236328,39.3203125,43,32,43C31.0849609,43,30.178833,42.9332275,29.2876587,42.8033447z"/><path d="M37.2314453,33.9736328c1.0205078,0.4257813,2.1904297-0.0585938,2.6152344-1.078125   c0.4238281-1.0195313-0.0585938-2.1904297-1.078125-2.6152344l-6-2.4970703c-0.4921875-0.2050781-1.0449219-0.2050781-1.5371094,0   L28.0078125,29.125l0.2792969-3.4804688c0.0429688-0.53125-0.1279297-1.0576172-0.4746094-1.4619141L25.5400391,21.53125   L28.9375,20.7216797c0.5185547-0.1230469,0.9658203-0.4482422,1.2431641-0.9033203L32,16.8378906l1.8193359,2.9804688   c0.2773438,0.4550781,0.7246094,0.7802734,1.2431641,0.9033203l3.3974609,0.8095703L36.1875,24.1826172   c-0.71875,0.8388672-0.6220703,2.1015625,0.2167969,2.8203125s2.1015625,0.6210938,2.8203125-0.2167969l4.4042969-5.1386719   c0.4541016-0.5292969,0.5986328-1.2568359,0.3837891-1.9199219c-0.2158203-0.6630859-0.7607422-1.1660156-1.4384766-1.3271484   l-5.7744141-1.3769531l-3.0927734-5.0654297C33.34375,11.3632813,32.6972656,11,32,11s-1.34375,0.3632813-1.7070313,0.9580078   l-3.0927734,5.0654297l-5.7744141,1.3769531c-0.6777344,0.1611328-1.2226563,0.6640625-1.4384766,1.3271484   c-0.2148438,0.6630859-0.0703125,1.390625,0.3837891,1.9199219l3.8623047,4.5068359l-0.4746094,5.9160156   c-0.0566406,0.6943359,0.2539063,1.3681641,0.8173828,1.7783203c0.3476563,0.2519531,0.7597656,0.3818359,1.1757813,0.3818359   c0.2597656,0,0.5214844-0.0507813,0.7685547-0.1533203L32,31.7958984L37.2314453,33.9736328z"/></g></svg>