<svg stroke="#f8f8f8" fill="#f8f8f8" id="Capa_1" enable-background="new 0 0 512 512" height="512" viewBox="0 0 512 512" width="512" xmlns="http://www.w3.org/2000/svg"><g><g><path d="m243.977 217.044h21.786c5.522 0 10-4.477 10-10s-4.478-10-10-10h-7.977l6.245-19.016c1.724-5.247-1.133-10.898-6.38-12.621-5.25-1.721-10.898 1.134-12.622 6.381l-10.554 32.136c-2.09 6.367 2.813 13.12 9.502 13.12z"/><path d="m491.921 500.747-8.9-70.46c-4.071-32.218-26.478-60.173-55.759-73.543l.596-3.979c1.561-10.424-4.911-20.448-15.053-23.316l-36.044-10.194c-10.182-2.881-20.723 2.209-24.909 11.688l-31.656-10.645-8.171-44.252c24.951-17.635 41.275-46.704 41.275-79.516v-50.454c22.964-.507 46.001-3.16 67.227-15.553l11.954-6.979c8.661-5.057 12.72-14.958 10.101-24.639s-11.117-16.185-21.146-16.185h-70.123l-16.948-54.734c-5.178-16.739-20.431-27.986-37.955-27.986-11.522 0-20.323 5.537-29.525 11.619-6.613 4.374-15.156 4.373-21.77-.001-9.205-6.084-17.999-11.618-29.525-11.618-17.234 0-32.84 11.504-37.953 27.982l-16.949 54.737h-70.123c-10.029 0-18.526 6.504-21.146 16.185-2.619 9.681 1.44 19.583 10.1 24.639l11.954 6.979c21.228 12.395 44.263 15.047 67.228 15.554v50.453c0 32.812 16.324 61.88 41.275 79.516l-8.171 44.252-31.655 10.644c-4.186-9.48-14.733-14.569-24.91-11.688l-36.043 10.194c-10.143 2.868-16.614 12.892-15.053 23.316l.596 3.978c-11.499 5.259-21.967 12.761-30.609 21.995-13.921 14.874-22.939 34.045-25.49 54.26l-8.56 67.75c-.36 2.848.521 5.713 2.42 7.867 1.896 2.153 4.628 3.387 7.499 3.387h452c2.87 0 5.603-1.233 7.501-3.387s2.78-5.018 2.42-7.866zm-366.707-8.747-7.353-49.105 61.369-12.557c25.152 7.959 50.967 11.949 76.782 11.948 25.814-.001 51.625-3.993 76.743-11.948l61.384 12.56-7.353 49.102zm72.679-152.65c15.803 14.448 36.652 22.77 58.106 22.77 21.353 0 42.439-8.257 58.106-22.77l31.258 10.511-21.008 62.155c-22.418 6.839-45.393 10.259-68.364 10.259-23.134-.001-46.24-3.507-68.364-10.259l-20.996-62.154zm172.203-.202c.168-.509.705-.797 1.222-.649l36.045 10.194c.482.137.79.614.716 1.11l-10.973 73.288-51.787-10.597 24.757-73.282c.005-.021.013-.043.02-.064zm-280.492-232.877c-.377-.22-1.26-.735-.879-2.144.381-1.408 1.403-1.408 1.84-1.408h119.863c5.523 0 10-4.477 10-10 0-5.523-4.477-10-10-10h-28.803l15.116-48.816c2.54-8.186 10.291-13.903 18.849-13.903 7.242 0 12.759 4.511 18.494 8.301 13.313 8.803 30.52 8.804 43.83.001 5.74-3.794 11.243-8.302 18.496-8.302 8.702 0 16.276 5.584 18.848 13.898l15.118 48.821h-31.963c-5.522 0-10 4.477-10 10 0 5.523 4.478 10 10 10h123.022c.437 0 1.459 0 1.84 1.408s-.502 1.924-.879 2.144l-11.954 6.979c-19.945 11.645-42.794 12.887-67.03 12.934-.038 0-.075-.006-.112-.006-.012 0-.023 0-.034 0-3.279.012-171.248.012-174.531 0-.045 0-.089.006-.134.007-24.247-.045-47.095-1.288-67.044-12.935zm89.096 90.259v-50.367c2.482-.011 4.969-.022 7.459-.022h139.68c2.491 0 4.977.011 7.46.022v50.367c0 42.07-35.243 77.31-77.3 77.31s-77.299-35.241-77.299-77.31zm53.107 94.264c7.894 2.022 16.045 3.046 24.193 3.046 12.86 0 25.717-2.563 37.581-7.532l7.06 38.236c-12.071 11.288-28.117 17.576-44.641 17.576-16.525 0-32.568-6.289-44.641-17.576l7.06-38.236c4.343 1.819 8.826 3.317 13.388 4.486zm-127.168 57.899 36.044-10.194c.514-.146 1.052.139 1.242.712l24.744 73.283-51.774 10.594-10.972-73.285c-.075-.496.233-.973.716-1.11zm-56.158 86.809c2.027-16.055 9.193-31.286 20.25-43.099 5.541-5.919 12.024-10.944 19.121-14.859l17.137 114.456h-63.646zm358.53 56.498 17.138-114.462c20.5 11.29 36.065 31.803 39.029 55.256l7.479 59.206z"/><circle cx="254.87" cy="92.724" r="10"/><path d="m162.39 464.61c-3.36-8.066-15.136-8.039-18.472.003-1.561 3.763-.622 8.258 2.34 11.066 3.171 3.007 8.018 3.588 11.82 1.452 4.357-2.447 6.201-7.913 4.312-12.521z"/><path d="m366.66 461.37c-6.43-6.43-17.688-1.206-17.042 7.804.306 4.259 3.411 7.916 7.543 8.957 4.123 1.039 8.608-.742 10.868-4.348 2.456-3.917 1.911-9.132-1.369-12.413z"/></g></g></svg>