<svg stroke="#f8f8f8" fill="#f8f8f8" id="Capa_1" enable-background="new 0 0 512 512" height="512" viewBox="0 0 512 512" width="512" xmlns="http://www.w3.org/2000/svg"><g><path d="m320.935 221.325c-11.162-5.022-18.375-16.074-18.375-28.156v-79.87h.48c14.756 0 26.76-12.004 26.76-26.76 0-14.623-11.791-26.537-26.365-26.749l6.237-39.41c.023-.154.043-.308.059-.463.483-5.091-1.213-10.18-4.653-13.964-3.441-3.783-8.348-5.953-13.462-5.953h-71.232c-5.114 0-10.02 2.17-13.461 5.953s-5.137 8.873-4.653 13.964c.016.155.035.309.059.463l6.238 39.421c-14.388.424-25.963 12.251-25.963 26.739 0 14.755 12.004 26.76 26.76 26.76h.48v26.675c0 4.142 3.357 7.5 7.5 7.5s7.5-3.358 7.5-7.5v-26.675h19.375c4.143 0 7.5-3.358 7.5-7.5s-3.357-7.5-7.5-7.5h-26.875-7.98c-6.484 0-11.76-5.275-11.76-11.76s5.275-11.759 11.76-11.759h93.677c6.484 0 11.76 5.275 11.76 11.759s-5.275 11.76-11.76 11.76h-7.98c-4.143 0-7.5 3.358-7.5 7.5v87.37c0 17.974 10.684 34.396 27.221 41.836 51.407 23.131 84.625 74.487 84.625 130.835 0 27.025-7.281 51.362-21.642 72.334-2.34 3.418-1.467 8.086 1.951 10.426 1.296.887 2.77 1.313 4.23 1.313 2.392 0 4.742-1.141 6.195-3.263 15.874-23.183 24.265-51.126 24.265-80.808-.001-62.243-36.69-118.969-93.471-144.518zm-97.185-161.545-6.56-41.45c-.051-1.133.49-1.913.829-2.285.355-.39 1.135-1.045 2.364-1.045h71.232c1.23 0 2.009.655 2.364 1.045.339.372.88 1.152.829 2.285l-6.56 41.45z"/><path d="m359.466 459.281c-26.698 24.608-63.802 37.997-104.504 37.715-38.83-.275-74.588-13.211-100.686-36.425-27.09-24.096-41.502-56.613-41.68-94.034-.271-56.804 33.071-108.49 84.942-131.677 16.587-7.415 27.305-23.85 27.305-41.872v-23.014c0-4.142-3.357-7.5-7.5-7.5s-7.5 3.358-7.5 7.5v23.014c0 12.114-7.232 23.175-18.426 28.178-57.293 25.61-94.12 82.7-93.821 145.442.195 41.201 16.784 78.551 46.71 105.17 28.818 25.634 68.079 39.917 110.55 40.217.464.003.925.005 1.389.005 43.967-.001 84.191-14.778 113.387-41.69 3.046-2.807 3.239-7.552.432-10.598-2.807-3.045-7.552-3.239-10.598-.431z"/><path d="m148.477 318.459c-1.938-1.073-4.254-1.233-6.319-.439-2.068.794-3.68 2.461-4.402 4.555-4.523 13.108-6.816 26.836-6.816 40.802 0 33.055 13.104 63.13 36.897 84.687 23.042 20.878 54.353 32.376 88.163 32.376s65.121-11.498 88.164-32.375c23.794-21.557 36.897-51.633 36.897-84.687 0-13.967-2.293-27.695-6.816-40.802-.854-2.475-2.938-4.326-5.496-4.882l-26.552-5.775c-27.846-6.057-57.473-2.905-83.419 8.875l-4.14 1.879c-33.901 15.387-73.588 13.814-106.161-4.214zm112.362 17.87 4.14-1.879c23.026-10.454 49.317-13.252 74.031-7.876l22.341 4.859c3.127 10.323 4.711 21.049 4.711 31.944 0 28.766-11.353 54.894-31.969 73.571-20.28 18.374-48.013 28.492-78.093 28.492s-57.814-10.118-78.093-28.491c-20.615-18.677-31.969-44.805-31.969-73.571 0-9.38 1.174-18.634 3.496-27.614 35.028 16.29 76.017 16.631 111.405.565z"/><path d="m312.85 406.245c.764 0 1.536-.031 2.311-.095 7.499-.612 14.311-4.107 19.181-9.842 4.869-5.735 7.214-13.024 6.602-20.523v.001c-.612-7.499-4.107-14.31-9.843-19.181-5.735-4.869-13.018-7.212-20.522-6.603-7.499.612-14.311 4.107-19.181 9.842-4.869 5.735-7.214 13.023-6.602 20.522 1.202 14.706 13.552 25.88 28.054 25.879zm-10.016-36.691c2.276-2.681 5.461-4.315 8.967-4.601.365-.03.73-.044 1.092-.044 3.115 0 6.1 1.092 8.501 3.131 2.682 2.277 4.315 5.461 4.6 8.966v.001c.286 3.506-.809 6.912-3.086 9.593-2.276 2.681-5.461 4.315-8.967 4.601-7.237.589-13.604-4.817-14.193-12.053-.286-3.506.809-6.913 3.086-9.594z"/><path d="m216.936 262.59c-13.411 0-24.321 10.91-24.321 24.321s10.91 24.321 24.321 24.321c13.41 0 24.32-10.91 24.32-24.321s-10.91-24.321-24.32-24.321zm0 33.641c-5.14 0-9.321-4.181-9.321-9.321 0-5.139 4.182-9.321 9.321-9.321 5.14 0 9.32 4.181 9.32 9.321s-4.181 9.321-9.32 9.321z"/><path d="m224.686 430.328c.659 0 1.326-.027 1.995-.082 6.476-.528 12.357-3.546 16.563-8.498 4.205-4.952 6.229-11.245 5.701-17.72-1.092-13.365-12.85-23.358-26.218-22.262-6.476.528-12.357 3.546-16.563 8.498-4.205 4.952-6.229 11.245-5.701 17.72 1.037 12.698 11.7 22.344 24.223 22.344zm-7.088-30.355c1.611-1.898 3.865-3.054 6.348-3.257.257-.021.512-.031.765-.031 4.799 0 8.886 3.698 9.282 8.563.203 2.481-.573 4.893-2.185 6.791-1.611 1.898-3.865 3.054-6.348 3.257-5.127.423-9.63-3.41-10.047-8.532-.202-2.481.574-4.893 2.185-6.791z"/></g></svg>